<svg width="27" height="26" viewBox="0 0 27 26" fill="none" xmlns="http://www.w3.org/2000/svg">
<path d="M24.1005 18.2225C23.527 18.2225 22.9665 18.0655 22.4897 17.7713C22.0129 17.477 21.6413 17.0588 21.4219 16.5696C21.2024 16.0803 21.145 15.5419 21.2569 15.0225C21.3688 14.5031 21.6449 14.0259 22.0504 13.6515C22.4558 13.277 22.9724 13.022 23.5349 12.9186C24.0973 12.8153 24.6802 12.8683 25.21 13.071C25.7398 13.2737 26.1926 13.6169 26.5112 14.0572C26.8297 14.4976 26.9998 15.0153 26.9998 15.5449C26.9998 16.255 26.6943 16.9361 26.1506 17.4383C25.6069 17.9404 24.8694 18.2225 24.1005 18.2225ZM24.1005 13.7597C23.7182 13.7597 23.3445 13.8644 23.0266 14.0606C22.7088 14.2567 22.461 14.5355 22.3147 14.8617C22.1684 15.1879 22.1302 15.5468 22.2047 15.8931C22.2793 16.2394 22.4634 16.5575 22.7337 16.8071C23.004 17.0568 23.3485 17.2268 23.7234 17.2957C24.0983 17.3646 24.487 17.3292 24.8402 17.1941C25.1933 17.059 25.4952 16.8302 25.7076 16.5366C25.92 16.2431 26.0333 15.8979 26.0333 15.5449C26.0333 15.0714 25.8297 14.6174 25.4672 14.2826C25.1047 13.9478 24.6131 13.7597 24.1005 13.7597Z" fill="#F57C00"/>
<path d="M24.8254 15.9902H23.3758C23.2476 15.9902 23.1247 15.9432 23.0341 15.8595C22.9435 15.7758 22.8926 15.6623 22.8926 15.5439C22.8926 15.4256 22.9435 15.3121 23.0341 15.2284C23.1247 15.1447 23.2476 15.0977 23.3758 15.0977H24.8254C24.9536 15.0977 25.0765 15.1447 25.1671 15.2284C25.2578 15.3121 25.3087 15.4256 25.3087 15.5439C25.3087 15.6623 25.2578 15.7758 25.1671 15.8595C25.0765 15.9432 24.9536 15.9902 24.8254 15.9902Z" fill="#F57C00"/>
<path d="M24.1004 16.6611C23.9722 16.6611 23.8493 16.6141 23.7587 16.5304C23.6681 16.4467 23.6172 16.3332 23.6172 16.2148V14.876C23.6172 14.7576 23.6681 14.6441 23.7587 14.5604C23.8493 14.4767 23.9722 14.4297 24.1004 14.4297C24.2286 14.4297 24.3515 14.4767 24.4421 14.5604C24.5327 14.6441 24.5836 14.7576 24.5836 14.876V16.2148C24.5836 16.3332 24.5327 16.4467 24.4421 16.5304C24.3515 16.6141 24.2286 16.6611 24.1004 16.6611Z" fill="#F57C00"/>
<path d="M17.094 21.7928C16.2614 21.7916 15.4632 21.4856 14.8745 20.9418C14.2857 20.3981 13.9544 19.6609 13.9531 18.892V13.3135C13.9531 13.1951 14.004 13.0816 14.0947 12.9979C14.1853 12.9142 14.3082 12.8672 14.4363 12.8672H15.4028C15.5309 12.8672 15.6538 12.9142 15.7445 12.9979C15.8351 13.0816 15.886 13.1951 15.886 13.3135C15.886 13.4318 15.8351 13.5453 15.7445 13.629C15.6538 13.7127 15.5309 13.7597 15.4028 13.7597H14.9196V18.892C14.9196 19.4246 15.1487 19.9354 15.5564 20.312C15.9642 20.6886 16.5173 20.9002 17.094 20.9002C17.6707 20.9002 18.2238 20.6886 18.6316 20.312C19.0394 19.9354 19.2685 19.4246 19.2685 18.892V13.7597H18.7853C18.6571 13.7597 18.5342 13.7127 18.4436 13.629C18.353 13.5453 18.3021 13.4318 18.3021 13.3135C18.3021 13.1951 18.353 13.0816 18.4436 12.9979C18.5342 12.9142 18.6571 12.8672 18.7853 12.8672H19.7517C19.8799 12.8672 20.0028 12.9142 20.0934 12.9979C20.184 13.0816 20.235 13.1951 20.235 13.3135V18.892C20.2337 19.6609 19.9023 20.3981 19.3136 20.9418C18.7248 21.4856 17.9267 21.7916 17.094 21.7928Z" fill="#F57C00"/>
<path d="M20.5979 25.8074C19.541 25.8062 18.5277 25.418 17.7804 24.7277C17.033 24.0375 16.6126 23.1017 16.6113 22.1256V21.3446C16.6113 21.2263 16.6622 21.1128 16.7529 21.0291C16.8435 20.9454 16.9664 20.8984 17.0945 20.8984C17.2227 20.8984 17.3456 20.9454 17.4362 21.0291C17.5269 21.1128 17.5778 21.2263 17.5778 21.3446V22.1256C17.5778 22.8654 17.896 23.5748 18.4623 24.0979C19.0287 24.621 19.7969 24.9149 20.5979 24.9149C21.3989 24.9149 22.167 24.621 22.7334 24.0979C23.2998 23.5748 23.618 22.8654 23.618 22.1256V17.7744C23.618 17.656 23.6689 17.5425 23.7595 17.4588C23.8501 17.3751 23.973 17.3281 24.1012 17.3281C24.2294 17.3281 24.3523 17.3751 24.4429 17.4588C24.5335 17.5425 24.5844 17.656 24.5844 17.7744V22.1256C24.5831 23.1017 24.1627 24.0375 23.4154 24.7277C22.668 25.418 21.6548 25.8062 20.5979 25.8074Z" fill="#F57C00"/>
<path d="M24.1032 7.7767C24.0598 7.78101 24.0161 7.78101 23.9727 7.7767L22.5762 7.42414C22.4525 7.39277 22.3474 7.31732 22.284 7.21438C22.2206 7.11143 22.204 6.98943 22.238 6.87521C22.2719 6.761 22.3536 6.66392 22.4651 6.60533C22.5766 6.54675 22.7087 6.53145 22.8323 6.56282L24.2288 6.91538C24.357 6.93077 24.4733 6.99254 24.5521 7.08712C24.6309 7.18169 24.6659 7.30131 24.6492 7.41968C24.6326 7.53804 24.5657 7.64544 24.4633 7.71825C24.3609 7.79106 24.2313 7.82333 24.1032 7.80794V7.7767Z" fill="#666666"/>
<path d="M23.1844 8.24513C23.1427 8.25131 23.1003 8.25131 23.0587 8.24513C22.9975 8.22964 22.9401 8.20315 22.8899 8.16717C22.8398 8.13118 22.7978 8.08642 22.7664 8.03544C22.735 7.98446 22.7147 7.92825 22.7069 7.87005C22.699 7.81184 22.7036 7.75277 22.7205 7.69621L23.1022 6.40647C23.1362 6.29225 23.2179 6.19517 23.3293 6.13658C23.4408 6.078 23.5729 6.0627 23.6966 6.09407C23.8202 6.12543 23.9254 6.20089 23.9888 6.30383C24.0522 6.40678 24.0688 6.52877 24.0348 6.64299L23.6531 7.93274C23.6218 8.02451 23.5593 8.10451 23.4749 8.1608C23.3904 8.21709 23.2885 8.24668 23.1844 8.24513Z" fill="#666666"/>
<path d="M8.53076 23.614C8.06085 23.6138 7.60122 23.487 7.20814 23.2492C6.81505 23.0114 6.50558 22.6729 6.31762 22.2751L0.209756 9.66329C-0.0510895 9.1235 -0.0693674 8.51018 0.158934 7.95795C0.387236 7.40573 0.843461 6.95973 1.42746 6.71785L11.174 2.70134C11.2811 2.6801 11.393 2.69315 11.4911 2.73835C11.5892 2.78355 11.6677 2.85822 11.7138 2.95009C11.7599 3.04196 11.7708 3.14557 11.7447 3.24391C11.7186 3.34225 11.6571 3.42947 11.5702 3.49125L1.8237 7.50777C1.64746 7.57922 1.48839 7.68236 1.35576 7.81119C1.22314 7.94002 1.11963 8.09195 1.05126 8.25812C0.982885 8.42429 0.951029 8.60137 0.957546 8.77903C0.964063 8.95669 1.00882 9.13137 1.08921 9.29288L7.18741 21.9315C7.26478 22.0943 7.37646 22.2412 7.51595 22.3637C7.65544 22.4862 7.81995 22.5818 7.99987 22.6449C8.1798 22.7081 8.37153 22.7375 8.5639 22.7315C8.75626 22.7254 8.9454 22.6841 9.12028 22.6099L13.16 20.9452C13.275 20.905 13.4023 20.9069 13.516 20.9504C13.6296 20.9939 13.721 21.0758 13.7715 21.1793C13.822 21.2829 13.8279 21.4004 13.7879 21.5078C13.7479 21.6152 13.665 21.7045 13.5562 21.7575L9.51652 23.4221C9.20674 23.5509 8.87048 23.6163 8.53076 23.614Z" fill="#999999"/>
<path d="M6.09541 9.15101C6.0011 9.15131 5.90875 9.12612 5.82976 9.07854C5.75076 9.03096 5.68857 8.96307 5.65085 8.88324C5.62511 8.82962 5.61106 8.77184 5.60952 8.71321C5.60797 8.65457 5.61896 8.59623 5.64185 8.54152C5.66474 8.48681 5.69908 8.4368 5.74291 8.39435C5.78674 8.35191 5.8392 8.31786 5.89729 8.29415L9.8645 6.65631C9.92257 6.63228 9.98518 6.61905 10.0488 6.61737C10.1124 6.61569 10.1757 6.6256 10.2352 6.64653C10.2946 6.66745 10.349 6.69899 10.3953 6.73934C10.4415 6.77969 10.4787 6.82805 10.5048 6.88168C10.5308 6.9353 10.5451 6.99314 10.5469 7.05187C10.5487 7.11061 10.538 7.16911 10.5154 7.22401C10.4927 7.27892 10.4585 7.32917 10.4149 7.37189C10.3712 7.41461 10.3188 7.44897 10.2607 7.473L6.28869 9.11084C6.22796 9.13642 6.16215 9.15009 6.09541 9.15101Z" fill="#666666"/>
<path d="M5.94702 12.142C5.83559 12.1447 5.72658 12.1117 5.63846 12.0486C5.55034 11.9856 5.48853 11.8963 5.46351 11.796C5.43848 11.6957 5.45178 11.5905 5.50115 11.4982C5.55053 11.4059 5.63293 11.3322 5.73441 11.2896L9.01062 9.95074C9.12567 9.91055 9.25298 9.91239 9.3666 9.95589C9.48023 9.99938 9.57162 10.0813 9.62215 10.1848C9.67267 10.2884 9.67853 10.4059 9.63853 10.5133C9.59853 10.6207 9.51567 10.71 9.40686 10.763L6.13064 12.1018C6.07289 12.1262 6.01049 12.1399 5.94702 12.142Z" fill="#666666"/>
<path d="M7.13335 14.5814C7.02318 14.581 6.9165 14.5458 6.83098 14.4816C6.74546 14.4175 6.68623 14.3283 6.66311 14.2288C6.63999 14.1294 6.65436 14.0256 6.70385 13.9347C6.75334 13.8438 6.83498 13.7712 6.93523 13.729L8.04179 13.2828C8.15684 13.2426 8.28415 13.2444 8.39778 13.2879C8.5114 13.3314 8.60279 13.4133 8.65332 13.5169C8.70385 13.6204 8.70971 13.7379 8.6697 13.8453C8.6297 13.9527 8.54685 14.042 8.43803 14.095L7.33146 14.5413C7.26925 14.5675 7.20172 14.5811 7.13335 14.5814Z" fill="#666666"/>
<path d="M12.503 19.4569C12.4614 19.4637 12.4189 19.4637 12.3773 19.4569L8.80151 18.5644C8.18416 18.4088 7.65886 18.0333 7.34088 17.5205C7.0229 17.0076 6.93822 16.3991 7.10542 15.8287L11.0533 2.45367C11.1367 2.17087 11.2796 1.906 11.4738 1.67422C11.6681 1.44243 11.9099 1.24826 12.1854 1.10279C12.4609 0.957324 12.7648 0.863416 13.0796 0.82643C13.3944 0.789445 13.7141 0.810105 14.0203 0.887232L25.2164 3.71664C25.5208 3.79213 25.8058 3.92299 26.0548 4.10155C26.3037 4.2801 26.5115 4.50276 26.6661 4.75647C26.8243 5.01089 26.9267 5.29163 26.9673 5.58263C27.0079 5.87362 26.986 6.16917 26.9028 6.45233L25.3517 11.7095C25.3087 11.8124 25.2259 11.897 25.1193 11.9468C25.0127 11.9967 24.8899 12.0083 24.7746 11.9795C24.6593 11.9506 24.5597 11.8834 24.4949 11.7906C24.4301 11.6979 24.4048 11.5864 24.4239 11.4774L25.9847 6.22027C26.0349 6.05048 26.0484 5.87322 26.0243 5.69863C26.0003 5.52403 25.9392 5.35552 25.8446 5.20275C25.7509 5.04945 25.6247 4.91512 25.4736 4.80778C25.3225 4.70045 25.1496 4.62229 24.9651 4.57796L13.7835 1.74409C13.4138 1.65542 13.0212 1.70505 12.691 1.88221C12.3607 2.05936 12.1195 2.34972 12.0197 2.6902L8.04286 16.0295C7.99227 16.1992 7.97839 16.3764 8.00202 16.551C8.02565 16.7256 8.08632 16.8942 8.18057 17.0472C8.27482 17.2001 8.40079 17.3344 8.55128 17.4423C8.70177 17.5503 8.87383 17.6298 9.05761 17.6763L12.6334 18.5688C12.6955 18.5829 12.7539 18.6082 12.8053 18.6432C12.8567 18.6783 12.9 18.7224 12.9328 18.7731C12.9656 18.8237 12.9872 18.8798 12.9964 18.9382C13.0055 18.9966 13.0021 19.0561 12.9862 19.1133C12.9607 19.2131 12.8987 19.3018 12.8107 19.3644C12.7227 19.427 12.614 19.4597 12.503 19.4569Z" fill="#999999"/>
<path d="M20.9362 6.78402C20.8929 6.78841 20.8491 6.78841 20.8058 6.78402L16.6115 5.7308C16.5502 5.71531 16.4928 5.68881 16.4427 5.65283C16.3925 5.61685 16.3505 5.57209 16.3191 5.52111C16.2877 5.47012 16.2675 5.41392 16.2596 5.35571C16.2517 5.2975 16.2563 5.23843 16.2732 5.18188C16.2864 5.12438 16.3118 5.06985 16.3478 5.02143C16.3839 4.97301 16.43 4.93165 16.4834 4.89972C16.5368 4.86779 16.5966 4.84592 16.6592 4.83537C16.7218 4.82482 16.786 4.8258 16.8482 4.83824L21.0426 5.90039C21.106 5.90801 21.1672 5.92709 21.2227 5.95656C21.2782 5.98603 21.3268 6.0253 21.3658 6.07212C21.4049 6.11895 21.4335 6.17242 21.4502 6.22948C21.4669 6.28654 21.4712 6.34608 21.463 6.40468C21.4547 6.46329 21.434 6.51982 21.4021 6.57105C21.3702 6.62228 21.3277 6.6672 21.277 6.70326C21.2263 6.73931 21.1684 6.76579 21.1066 6.78118C21.0448 6.79657 20.9804 6.80056 20.9169 6.79295L20.9362 6.78402Z" fill="#666666"/>
<path d="M21.57 9.71885C21.5267 9.72323 21.4829 9.72323 21.4396 9.71885L14.4329 7.9605C14.3048 7.92736 14.1961 7.84856 14.1309 7.74143C14.0656 7.63431 14.0491 7.50763 14.085 7.38927C14.1209 7.27091 14.2062 7.17056 14.3222 7.1103C14.4382 7.05004 14.5754 7.03481 14.7035 7.06795L21.6812 8.85306C21.8093 8.86845 21.9256 8.93023 22.0045 9.0248C22.0833 9.11937 22.1182 9.239 22.1016 9.35736C22.0849 9.47572 22.018 9.58312 21.9156 9.65593C21.8132 9.72875 21.6837 9.76101 21.5555 9.74562L21.57 9.71885Z" fill="#666666"/>
<path d="M19.5127 11.9698C19.4712 11.9766 19.4287 11.9766 19.3871 11.9698L13.6851 10.5283C13.6229 10.5122 13.5648 10.4849 13.514 10.4481C13.4632 10.4112 13.4208 10.3654 13.3892 10.3134C13.3576 10.2614 13.3373 10.2042 13.3297 10.1449C13.322 10.0857 13.327 10.0257 13.3445 9.96824C13.3619 9.9108 13.3914 9.85711 13.4314 9.81021C13.4713 9.76332 13.5208 9.72414 13.5771 9.69493C13.6334 9.66571 13.6954 9.64703 13.7596 9.63994C13.8237 9.63285 13.8887 9.6375 13.9509 9.65361L19.6384 11.0772C19.761 11.1086 19.8653 11.1833 19.9287 11.2853C19.992 11.3872 20.0092 11.5081 19.9766 11.6217C19.9528 11.7194 19.8941 11.8068 19.8099 11.8699C19.7258 11.9331 19.6211 11.9682 19.5127 11.9698Z" fill="#666666"/>
</svg>
