<svg width="25" height="25" viewBox="0 0 25 25" fill="none" xmlns="http://www.w3.org/2000/svg">
<path d="M11.9696 9.16675C11.5908 9.16675 11.2878 9.46978 11.2878 9.84857C11.2878 9.9622 11.3256 10.0758 11.3635 10.1895C11.3256 10.1895 11.2878 10.2274 11.2878 10.2274C10.909 10.4167 10.3408 10.341 9.962 9.88644C9.92412 9.84857 9.39382 9.01523 8.40897 9.35614L7.12109 9.81069C7.12109 9.88644 7.12109 10.038 7.12109 10.0001C7.15897 10.0001 8.52261 9.50766 8.44685 9.54554C9.31806 9.24251 9.77261 10.0001 9.81049 10.0001C10.265 10.5304 10.9469 10.6061 11.4772 10.341C11.5908 10.4546 11.7802 10.5683 11.9696 10.5683C12.0832 10.5683 12.1969 10.5304 12.2726 10.4925C12.9165 10.1516 12.6893 9.16675 11.9696 9.16675Z" fill="#2C5F8D"/>
<path d="M6.28752 22.9548C6.24964 22.9548 6.17389 22.9548 6.13601 22.9927L4.77237 22.3487L5.90874 21.8184C5.98449 21.932 6.09813 22.0078 6.24964 22.0078H6.36328C6.17389 21.8563 6.02237 21.6669 5.90874 21.4396V21.4775L4.50722 22.1214V18.0684C4.96177 18.0684 5.41631 17.9548 5.7951 17.8411V17.273L3.59813 16.2124C3.14358 16.023 2.72692 15.682 2.46177 15.2654C1.81783 15.5684 1.36328 15.9851 1.36328 16.4775C1.36328 17.3108 2.5754 17.9927 4.09055 18.0684V22.0078L2.7648 21.3639C2.68904 21.2502 2.5754 21.1745 2.42389 21.1745C2.19661 21.1745 2.00722 21.3639 2.00722 21.5911C2.00722 21.8184 2.19661 22.0078 2.42389 22.0078C2.5754 22.0078 2.68904 21.932 2.7648 21.8184L3.93904 22.3866L2.5754 23.0305C2.53752 22.9927 2.46177 22.9927 2.42389 22.9927C2.19661 22.9927 2.00722 23.182 2.00722 23.4093C2.00722 23.6366 2.19661 23.826 2.42389 23.826C2.65116 23.826 2.84055 23.6366 2.84055 23.4093C2.84055 23.3714 2.84055 23.3714 2.84055 23.3336L4.39358 22.6139L5.90874 23.3336V23.4093C5.90874 23.6366 6.09813 23.826 6.3254 23.826C6.55268 23.826 6.74207 23.6366 6.74207 23.4093C6.74207 23.182 6.47692 22.9548 6.28752 22.9548Z" fill="#2C5F8D"/>
<path d="M9.73509 14.1289L7.12145 13.1819C7.12145 13.6743 7.19721 14.0531 7.00781 14.6213L7.9169 15.0758C8.40933 15.3031 8.75024 15.8334 8.75024 16.4016V20.8334C8.75024 21.0228 8.71236 21.1743 8.67448 21.3258C8.86387 21.5152 9.12902 21.591 9.39418 21.591C10.0002 21.591 10.4927 21.0986 10.4927 20.4925V15.1516C10.4548 14.697 10.1896 14.2804 9.73509 14.1289Z" fill="#2C5F8D"/>
<path d="M4.58298 7.0456C5.67081 7.0456 6.55268 6.16373 6.55268 5.0759C6.55268 3.98806 5.67081 3.1062 4.58298 3.1062C3.49514 3.1062 2.61328 3.98806 2.61328 5.0759C2.61328 6.16373 3.49514 7.0456 4.58298 7.0456Z" fill="#2C5F8D"/>
<path d="M7.76551 15.379C7.72763 15.379 6.47763 14.7729 6.55339 14.8108C6.66702 14.5457 6.78066 14.2048 6.78066 13.8638C6.78066 13.5987 6.78066 12.5381 6.78066 12.576L4.35642 10.9851C3.86399 10.6441 3.71248 9.96233 4.05339 9.4699C4.39429 8.97748 5.07611 8.82597 5.56854 9.16687L6.78066 9.96233V9.73506C6.78066 8.52293 5.79581 7.53809 4.58369 7.53809C3.37157 7.53809 2.38672 8.52293 2.38672 9.73506V13.9017C2.38672 14.8108 2.9549 15.6063 3.75036 15.9472C3.78823 15.9851 6.28823 17.1972 6.13672 17.1214V17.7654V20.8335C6.13672 21.4017 6.59126 21.932 7.2352 21.932C7.80339 21.932 8.25793 21.5154 8.33369 20.9472C8.33369 20.9093 8.33369 20.8714 8.33369 20.8335V16.3638C8.37157 15.9851 8.14429 15.5684 7.76551 15.379Z" fill="#2C5F8D"/>
<path d="M4.35631 9.62139C4.12904 9.9623 4.24268 10.4168 4.54571 10.6441L5.56843 11.3259C5.56843 11.3259 5.56843 11.3259 5.56843 11.2881L6.47752 10.1896L5.34116 9.432C5.03813 9.20472 4.58358 9.31836 4.35631 9.62139Z" fill="#2C5F8D"/>
<path d="M7.23388 12.4244C7.34752 12.5001 7.49904 12.538 7.65055 12.538H9.43085C9.84752 12.538 10.1505 12.1971 10.1505 11.8183C10.1505 11.4017 9.80964 11.0986 9.43085 11.0986H7.83994C7.80207 11.0607 6.77934 10.3789 6.81722 10.4168C6.77934 10.4547 5.83237 11.6289 5.87025 11.5532C8.37025 13.1441 6.32479 11.8183 7.23388 12.4244Z" fill="#2C5F8D"/>
<path d="M18.5978 4.62133C19.772 4.62133 20.719 3.67436 20.719 2.50012C20.719 1.32588 19.772 0.378906 18.5978 0.378906C17.4235 0.378906 16.4766 1.32588 16.4766 2.50012C16.4766 3.67436 17.4235 4.62133 18.5978 4.62133Z" fill="#2C5F8D"/>
<path d="M19.4312 12.6516C19.7721 12.6137 20.0372 12.538 20.3024 12.4622L20.113 11.4016L17.916 11.7425L18.56 15.7956L20.7569 15.4546L20.6433 14.6971C20.3403 14.7728 19.7721 14.8865 19.5448 14.8865C19.0145 14.8865 18.5221 14.4698 18.4463 13.9016C18.3706 13.2956 18.8251 12.7274 19.4312 12.6516Z" fill="#2C5F8D"/>
<path d="M22.2349 6.40169C22.0834 6.13654 21.1364 5.64412 20.8713 5.53048C20.9849 6.40169 20.947 7.4623 20.7576 8.25775C20.9092 8.37139 20.9849 8.52291 20.9849 8.7123C20.9849 9.01533 20.7198 9.28048 20.4167 9.28048C20.1137 9.28048 19.8485 9.01533 19.8485 8.7123C19.8485 8.40927 20.0758 8.14412 20.4167 8.14412C20.644 7.19715 20.5682 6.17442 20.4925 5.34109C19.7349 5.03806 18.9773 4.88654 18.2198 4.92442C19.0152 5.56836 19.3182 6.96988 18.9773 7.9926C18.9773 8.03048 18.9395 8.03048 18.9395 8.06836C19.0152 8.21988 19.0152 8.40927 18.8637 8.52291L18.5607 8.78806C18.4092 8.93957 18.1819 8.90169 18.0304 8.78806C17.8788 8.63654 17.9167 8.40927 18.0682 8.25775L18.3713 7.9926C18.447 7.91685 18.5228 7.87897 18.6364 7.87897C19.0531 6.62897 18.3713 5.15169 17.5758 5.03806C17.4243 5.07594 17.2728 5.11382 17.1213 5.15169C16.5152 5.56836 16.2879 7.00776 16.894 8.03048C17.0076 7.9926 17.1213 8.03048 17.2349 8.10624L17.5379 8.37139C17.6895 8.52291 17.6895 8.75018 17.5758 8.90169C17.4243 9.05321 17.197 9.05321 17.0455 8.93957L16.6667 8.63654C16.5531 8.52291 16.5152 8.40927 16.5531 8.25775C16.0607 7.50018 15.947 6.25018 16.3637 5.41685C15.9849 5.60624 14.8864 6.25018 14.7728 6.62897C14.7728 6.66685 14.2046 8.44715 12.6895 9.05321C13.144 9.46988 13.144 10.1517 12.7652 10.5684C12.8031 10.5684 12.841 10.5684 12.8788 10.5305C13.9773 10.1896 14.7728 9.46988 15.2652 8.78806L15.8713 16.5911C15.8713 16.7047 15.947 16.7805 16.0228 16.7805V23.4471C16.0228 24.0532 16.5152 24.5456 17.1213 24.5456C17.7273 24.5456 18.2198 24.0532 18.2198 23.4471V16.8562H18.9773V23.5229C18.9773 24.129 19.4698 24.6214 20.0758 24.6214C20.6819 24.6214 21.1743 24.129 21.1743 23.5229V16.8184C21.2501 16.7805 21.3258 16.7047 21.3258 16.629L21.5152 14.3941C21.3637 14.4699 21.1743 14.5078 21.0228 14.5835L21.2122 15.7578L20.5682 15.8714L19.3182 16.0608L18.2198 16.2502L17.4622 11.4775L20.4167 10.985L20.644 12.3487C21.4016 12.0456 21.7046 11.5911 21.7804 10.9471L21.9319 9.16685C22.6895 11.5911 21.7804 12.6896 19.4698 13.0305C19.0531 13.0684 18.7879 13.4471 18.8258 13.8638C18.8637 14.2426 19.2425 14.5456 19.6592 14.5078C24.1288 13.8638 24.5834 9.9623 22.2349 6.40169Z" fill="#2C5F8D"/>
</svg>
